HIERARCHY
ROOT pelvis
{
	OFFSET 0.003123 -0.351407 0.012037
	CHANNELS 6 Xposition Yposition Zposition Zrotation Yrotation Xrotation 
	JOINT left_hip
	{
		OFFSET 0.058189 -0.092763 -0.026001
		CHANNELS 3 Zrotation Yrotation Xrotation
		JOINT left_knee
		{
			OFFSET 0.054695 -0.378753 -0.009396
			CHANNELS 3 Zrotation Yrotation Xrotation
			JOINT left_ankle
			{
				OFFSET -0.043453 -0.403059 -0.031876
				CHANNELS 3 Zrotation Yrotation Xrotation
				JOINT left_foot
				{
					OFFSET 0.047257 -0.057997 0.118216
					CHANNELS 3 Zrotation Yrotation Xrotation
					End Site
					{
						OFFSET 0.000000 0.000000 0.000000
					}
				}
			}
		}
	}
	JOINT right_hip
	{
		OFFSET -0.063267 -0.103908 -0.021250
		CHANNELS 3 Zrotation Yrotation Xrotation
		JOINT right_knee
		{
			OFFSET -0.044210 -0.362380 -0.016824
			CHANNELS 3 Zrotation Yrotation Xrotation
			JOINT right_ankle
			{
				OFFSET 0.015417 -0.410728 -0.020192
				CHANNELS 3 Zrotation Yrotation Xrotation
				JOINT right_foot
				{
					OFFSET -0.038812 -0.058328 0.119049
					CHANNELS 3 Zrotation Yrotation Xrotation
					End Site
					{
						OFFSET 0.000000 0.000000 0.000000
					}
				}
			}
		}
	}
	JOINT spine_1
	{
		OFFSET -0.002763 0.109891 -0.027618
		CHANNELS 3 Zrotation Yrotation Xrotation
		JOINT spine_2
		{
			OFFSET 0.009448 0.131853 -0.005940
			CHANNELS 3 Zrotation Yrotation Xrotation
			JOINT spine_3
			{
				OFFSET -0.011330 0.052235 0.028447
				CHANNELS 3 Zrotation Yrotation Xrotation
				JOINT neck
				{
					OFFSET -0.012164 0.165167 -0.031615
					CHANNELS 3 Zrotation Yrotation Xrotation
					JOINT head
					{
						OFFSET 0.024783 0.160452 0.020737
						CHANNELS 3 Zrotation Yrotation Xrotation
						End Site
						{
							OFFSET 0.000000 0.000000 0.000000
						}
					}
				}
				JOINT left_collar
				{
					OFFSET 0.046364 0.084944 -0.007220
					CHANNELS 3 Zrotation Yrotation Xrotation
					JOINT left_shoulder
					{
						OFFSET 0.119239 0.057728 -0.015461
						CHANNELS 3 Zrotation Yrotation Xrotation
						JOINT left_elbow
						{
							OFFSET 0.254123 -0.072151 -0.042459
							CHANNELS 3 Zrotation Yrotation Xrotation
							JOINT left_wrist
							{
								OFFSET 0.251987 0.023221 -0.002472
								CHANNELS 3 Zrotation Yrotation Xrotation
								JOINT left_index_1
								{
									OFFSET 0.101902 -0.008688 0.019351
									CHANNELS 3 Zrotation Yrotation Xrotation
									JOINT left_index_2
									{
										OFFSET 0.030149 -0.011154 0.001151
										CHANNELS 3 Zrotation Yrotation Xrotation
										JOINT left_index_3
										{
											OFFSET 0.006504 -0.021577 -0.002433
											CHANNELS 3 Zrotation Yrotation Xrotation
											End Site
											{
												OFFSET 0.000000 0.000000 0.000000
											}
										}
									}
								}
								JOINT left_middle_1
								{
									OFFSET 0.109398 -0.006328 -0.003981
									CHANNELS 3 Zrotation Yrotation Xrotation
									JOINT left_middle_2
									{
										OFFSET 0.026472 -0.015218 -0.004641
										CHANNELS 3 Zrotation Yrotation Xrotation
										JOINT left_middle_3
										{
											OFFSET 0.005022 -0.023347 -0.001911
											CHANNELS 3 Zrotation Yrotation Xrotation
											End Site
											{
												OFFSET 0.000000 0.000000 0.000000
											}
										}
									}
								}
								JOINT left_pinky_1
								{
									OFFSET 0.084047 -0.014539 -0.043750
									CHANNELS 3 Zrotation Yrotation Xrotation
									JOINT left_pinky_2
									{
										OFFSET 0.012124 -0.014448 -0.005375
										CHANNELS 3 Zrotation Yrotation Xrotation
										JOINT left_pinky_3
										{
											OFFSET 0.003798 -0.018853 0.000167
											CHANNELS 3 Zrotation Yrotation Xrotation
											End Site
											{
												OFFSET 0.000000 0.000000 0.000000
											}
										}
									}
								}
								JOINT left_ring_1
								{
									OFFSET 0.097444 -0.009268 -0.027345
									CHANNELS 3 Zrotation Yrotation Xrotation
									JOINT left_ring_2
									{
										OFFSET 0.023561 -0.016057 -0.001895
										CHANNELS 3 Zrotation Yrotation Xrotation
										JOINT left_ring_3
										{
											OFFSET 0.004257 -0.023548 0.000814
											CHANNELS 3 Zrotation Yrotation Xrotation
											End Site
											{
												OFFSET 0.000000 0.000000 0.000000
											}
										}
									}
								}
								JOINT left_thumb_1
								{
									OFFSET 0.040636 -0.017977 0.025611
									CHANNELS 3 Zrotation Yrotation Xrotation
									JOINT left_thumb_2
									{
										OFFSET 0.021637 -0.017639 0.011623
										CHANNELS 3 Zrotation Yrotation Xrotation
										JOINT left_thumb_3
										{
											OFFSET 0.024002 -0.008356 0.006548
											CHANNELS 3 Zrotation Yrotation Xrotation
											End Site
											{
												OFFSET 0.000000 0.000000 0.000000
											}
										}
									}
								}
							}
						}
					}
				}
				JOINT right_collar
				{
					OFFSET -0.047695 0.084339 -0.013400
					CHANNELS 3 Zrotation Yrotation Xrotation
					JOINT right_shoulder
					{
						OFFSET -0.102578 0.053524 -0.012669
						CHANNELS 3 Zrotation Yrotation Xrotation
						JOINT right_elbow
						{
							OFFSET -0.271150 -0.036492 -0.026467
							CHANNELS 3 Zrotation Yrotation Xrotation
							JOINT right_wrist
							{
								OFFSET -0.249267 -0.004533 -0.015325
								CHANNELS 3 Zrotation Yrotation Xrotation
								JOINT right_index_1
								{
									OFFSET -0.099881 -0.011783 0.019600
									CHANNELS 3 Zrotation Yrotation Xrotation
									JOINT right_index_2
									{
										OFFSET -0.030148 -0.011154 0.001151
										CHANNELS 3 Zrotation Yrotation Xrotation
										JOINT right_index_3
										{
											OFFSET -0.006505 -0.021577 -0.002432
											CHANNELS 3 Zrotation Yrotation Xrotation
											End Site
											{
												OFFSET 0.000000 0.000000 0.000000
											}
										}
									}
								}
								JOINT right_middle_1
								{
									OFFSET -0.107376 -0.009422 -0.003734
									CHANNELS 3 Zrotation Yrotation Xrotation
									JOINT right_middle_2
									{
										OFFSET -0.026472 -0.015218 -0.004641
										CHANNELS 3 Zrotation Yrotation Xrotation
										JOINT right_middle_3
										{
											OFFSET -0.005022 -0.023347 -0.001911
											CHANNELS 3 Zrotation Yrotation Xrotation
											End Site
											{
												OFFSET 0.000000 0.000000 0.000000
											}
										}
									}
								}
								JOINT right_pinky_1
								{
									OFFSET -0.082027 -0.017634 -0.043503
									CHANNELS 3 Zrotation Yrotation Xrotation
									JOINT right_pinky_2
									{
										OFFSET -0.012123 -0.014448 -0.005374
										CHANNELS 3 Zrotation Yrotation Xrotation
										JOINT right_pinky_3
										{
											OFFSET -0.003798 -0.018852 0.000167
											CHANNELS 3 Zrotation Yrotation Xrotation
											End Site
											{
												OFFSET 0.000000 0.000000 0.000000
											}
										}
									}
								}
								JOINT right_ring_1
								{
									OFFSET -0.095423 -0.012362 -0.027099
									CHANNELS 3 Zrotation Yrotation Xrotation
									JOINT right_ring_2
									{
										OFFSET -0.023561 -0.016057 -0.001895
										CHANNELS 3 Zrotation Yrotation Xrotation
										JOINT right_ring_3
										{
											OFFSET -0.004257 -0.023548 0.000816
											CHANNELS 3 Zrotation Yrotation Xrotation
											End Site
											{
												OFFSET 0.000000 0.000000 0.000000
											}
										}
									}
								}
								JOINT right_thumb_1
								{
									OFFSET -0.038613 -0.021074 0.025861
									CHANNELS 3 Zrotation Yrotation Xrotation
									JOINT right_thumb_2
									{
										OFFSET -0.021636 -0.017639 0.011623
										CHANNELS 3 Zrotation Yrotation Xrotation
										JOINT right_thumb_3
										{
											OFFSET -0.024004 -0.008353 0.006547
											CHANNELS 3 Zrotation Yrotation Xrotation
											End Site
											{
												OFFSET 0.000000 0.000000 0.000000
											}
										}
									}
								}
							}
						}
					}
				}
			}
		}
	}
}
MOTION
Frames: 4
Frame Time: 0.050000
-0.221397 0.964310 0.151054 -3.837288 -0.960481 -23.521913 16.371875 0.205499 8.365092 -5.006791 -0.548873 14.101318 2.435279 22.118955 42.243587 0.000000 0.000000 0.000000 4.514948 -3.660882 22.360289 3.705890 -0.167193 7.283066 -7.835100 -17.244862 6.898421 0.000000 0.000000 0.000000 -5.147936 -0.960333 17.646668 -4.677420 -1.259219 -14.908800 10.472648 0.022580 22.439042 0.877397 0.886458 -6.667958 0.000000 0.000000 0.000000 -2.283956 -6.358634 3.001225 -24.951047 -39.800577 -7.553929 51.030694 -23.339532 -7.973467 11.894790 -4.780584 -67.620141 19.577132 -2.247088 3.692611 23.783733 -21.603730 -39.216753 0.000000 0.000000 0.000000 -11.412313 -21.670243 -5.809280 13.418065 -8.443276 -28.113512 0.000000 0.000000 0.000000 -4.559379 -38.248865 -34.245081 13.703642 -0.156765 -0.168730 0.000000 0.000000 0.000000 -24.155705 -32.321159 -2.860939 28.829257 -0.080952 -20.712849 0.000000 0.000000 0.000000 72.463844 1.349010 -4.522374 -38.629054 -7.291669 12.682714 0.000000 0.000000 0.000000 3.414310 0.127303 -0.284153 38.218134 28.643296 1.050559 -74.737580 42.283373 -29.623654 -12.875006 -7.765440 -70.554696 -40.065637 -1.257477 18.390689 -34.556681 14.460996 -39.733351 0.000000 0.000000 0.000000 1.581591 21.470217 -8.677357 -21.552100 10.006135 -30.116835 0.000000 0.000000 0.000000 0.939549 42.127477 -39.218587 -18.334992 0.135177 -0.613866 0.000000 0.000000 0.000000 20.141488 36.254714 -6.124844 -24.405591 2.222360 -25.778663 0.000000 0.000000 0.000000 -61.709719 -2.372615 -3.136057 43.258717 -4.501477 18.707872 0.000000 0.000000 0.000000 
-0.223282 0.963665 0.152374 -3.850889 -0.973107 -23.975712 16.532913 0.205353 8.603975 -4.987873 -0.600192 14.723024 2.372364 22.010527 41.955837 0.000000 0.000000 0.000000 4.507659 -3.701331 22.646174 3.795835 -0.175590 7.856693 -7.744793 -17.042067 6.637042 0.000000 0.000000 0.000000 -5.483017 -0.949231 17.848934 -5.041932 -1.072680 -14.765428 10.979742 -0.047983 21.917408 0.239162 0.865090 -5.991220 0.000000 0.000000 0.000000 -3.154537 -6.082721 2.836322 -25.049268 -38.300795 -7.385551 48.236158 -20.447581 -6.349638 9.652455 2.863343 -66.173792 25.385259 4.318846 8.456895 27.965396 -14.082764 -35.307788 0.000000 0.000000 0.000000 -2.961828 -12.587807 -5.586249 16.982731 -7.574878 -24.693933 0.000000 0.000000 0.000000 -3.334975 -37.726482 -34.476576 17.498367 0.009694 0.627897 0.000000 0.000000 0.000000 -17.410944 -27.436081 -5.452372 27.529386 -0.051400 -17.597452 0.000000 0.000000 0.000000 73.067175 2.240444 -2.297066 -37.075368 -4.252459 12.479498 0.000000 0.000000 0.000000 3.205343 -0.345828 -0.525278 40.112420 25.517735 0.586908 -71.802997 44.411212 -29.909800 -8.829635 -12.669506 -68.514006 -39.840045 -2.267419 18.808321 -35.608277 14.236789 -41.109449 0.000000 0.000000 0.000000 -1.682370 14.093763 -7.024200 -24.528713 8.547651 -27.230404 0.000000 0.000000 0.000000 2.544322 40.022563 -37.734939 -19.173702 0.070362 -0.230059 0.000000 0.000000 0.000000 16.512661 31.549006 -7.539136 -29.097821 0.986592 -23.264467 0.000000 0.000000 0.000000 -62.065173 -2.592755 -3.244664 40.446927 -3.774184 16.691170 0.000000 0.000000 0.000000 
-0.225166 0.963020 0.153694 -3.948374 -1.221560 -24.441278 16.883681 0.209794 8.953205 -5.061438 -0.613558 15.194724 2.488287 22.107918 42.023523 0.000000 0.000000 0.000000 4.878842 -3.834711 23.098120 3.483101 -0.132347 8.142680 -7.735251 -16.958797 6.365484 0.000000 0.000000 0.000000 -5.459460 -0.938563 17.125769 -5.061665 -0.879664 -13.988268 10.590730 0.057273 22.766589 0.259235 0.944625 -6.549122 0.000000 0.000000 0.000000 -3.212697 -5.026385 2.296902 -25.128355 -37.547480 -7.339710 45.764469 -17.033664 -4.762600 5.102888 8.385210 -64.712830 31.558024 8.762408 14.500172 33.577676 -11.493224 -35.844483 0.000000 0.000000 0.000000 4.567185 -4.694490 -2.394164 19.416979 -7.137127 -22.827236 0.000000 0.000000 0.000000 -1.066510 -36.593846 -35.226770 19.238930 0.149290 1.402714 0.000000 0.000000 0.000000 -12.864597 -22.196672 -6.477005 31.367507 0.010214 -18.085710 0.000000 0.000000 0.000000 74.821548 3.261101 0.270685 -35.275506 -1.234858 12.158539 0.000000 0.000000 0.000000 3.442102 -0.207782 -0.473632 41.573435 23.238689 0.145432 -69.325043 45.116430 -29.090843 -4.648979 -18.044227 -67.875023 -37.446291 -3.765951 18.166301 -35.821267 13.545493 -39.331336 0.000000 0.000000 0.000000 -10.164348 6.990106 -2.985670 -20.186477 12.769502 -29.289997 0.000000 0.000000 0.000000 2.123098 39.722876 -37.842161 -22.179664 0.007845 0.426353 0.000000 0.000000 0.000000 9.383179 25.413478 -9.987508 -24.202755 3.561966 -25.193478 0.000000 0.000000 0.000000 -59.994457 -1.488222 -4.252266 37.062809 -6.604273 15.983407 0.000000 0.000000 0.000000 
-0.227051 0.962698 0.155014 -4.178058 -1.375789 -25.284230 17.267179 0.210574 9.675367 -4.794792 -0.714237 15.743660 2.141609 21.787277 41.759016 0.000000 0.000000 0.000000 5.349253 -4.102538 24.133077 3.033268 -0.077671 7.949150 -7.600193 -16.854428 6.709735 0.000000 0.000000 0.000000 -5.408066 -0.977601 17.929407 -6.084727 -0.470236 -14.080617 11.792783 -0.289435 22.236314 -0.394586 0.814239 -5.093620 0.000000 0.000000 0.000000 -4.216641 -3.561586 1.495935 -25.430422 -36.941288 -7.188879 42.484742 -14.806121 -3.605896 0.376568 12.465521 -65.268621 33.795875 9.852928 17.250164 34.127264 -11.482012 -35.405701 0.000000 0.000000 0.000000 9.752257 0.643261 2.076036 21.797346 -9.527520 -26.526996 0.000000 0.000000 0.000000 1.438297 -37.210924 -37.048282 21.337526 0.395277 3.477077 0.000000 0.000000 0.000000 -7.158578 -19.410132 -8.267273 29.684434 -0.310194 -16.747299 0.000000 0.000000 0.000000 76.257055 3.384795 2.537258 -34.282520 -1.655184 11.594151 0.000000 0.000000 0.000000 2.627843 0.514264 -0.002557 42.985594 20.004966 -0.604756 -68.568242 46.090231 -29.525068 2.142697 -25.914161 -69.534071 -36.994818 -6.516194 20.684123 -35.264845 19.376126 -44.933735 0.000000 0.000000 0.000000 -12.645392 0.275087 2.855833 -22.552142 18.750608 -36.958515 0.000000 0.000000 0.000000 -2.306590 38.427729 -39.622711 -21.755600 -0.060230 0.384189 0.000000 0.000000 0.000000 5.431294 22.559564 -11.042993 -24.490400 4.840811 -27.116900 0.000000 0.000000 0.000000 -58.985365 -2.657200 -1.696917 34.766634 -5.113487 14.878058 0.000000 0.000000 0.000000 
